<mxfile host="app.diagrams.net" modified="2022-12-01T02:55:51.270Z" agent="5.0 (Windows NT 10.0; Win64; x64) AppleWebKit/537.36 (KHTML, like Gecko) Chrome/107.0.0.0 Safari/537.36 Edg/107.0.1418.56" version="20.6.0" etag="BRO-yUIU7BOUC93cykP0" type="github">
  <diagram id="QLy4UtQ3bMvTCbZKMdR9" name="第 1 页">
    <mxGraphModel dx="1422" dy="762" grid="1" gridSize="10" guides="1" tooltips="1" connect="1" arrows="1" fold="1" page="1" pageScale="1" pageWidth="827" pageHeight="1169" math="0" shadow="0">
      <root>
        <mxCell id="0" />
        <mxCell id="1" parent="0" />
        <mxCell id="8ialyaMky4912xhGDfEx-3" style="edgeStyle=orthogonalEdgeStyle;rounded=0;orthogonalLoop=1;jettySize=auto;html=1;" edge="1" parent="1" source="8ialyaMky4912xhGDfEx-1" target="8ialyaMky4912xhGDfEx-2">
          <mxGeometry relative="1" as="geometry" />
        </mxCell>
        <mxCell id="8ialyaMky4912xhGDfEx-1" value="&quot;F1&quot;唤起界面" style="rounded=0;whiteSpace=wrap;html=1;" vertex="1" parent="1">
          <mxGeometry x="120" y="120" width="120" height="60" as="geometry" />
        </mxCell>
        <mxCell id="8ialyaMky4912xhGDfEx-2" value="显示当前焦点所在位置的内容" style="rounded=0;whiteSpace=wrap;html=1;" vertex="1" parent="1">
          <mxGeometry x="414" y="120" width="120" height="60" as="geometry" />
        </mxCell>
        <mxCell id="8ialyaMky4912xhGDfEx-6" style="edgeStyle=orthogonalEdgeStyle;rounded=0;orthogonalLoop=1;jettySize=auto;html=1;entryX=0;entryY=0.5;entryDx=0;entryDy=0;" edge="1" parent="1" source="8ialyaMky4912xhGDfEx-4" target="8ialyaMky4912xhGDfEx-5">
          <mxGeometry relative="1" as="geometry" />
        </mxCell>
        <mxCell id="8ialyaMky4912xhGDfEx-4" value="点击“API文档”按钮唤起界面" style="rounded=0;whiteSpace=wrap;html=1;" vertex="1" parent="1">
          <mxGeometry x="120" y="220" width="120" height="60" as="geometry" />
        </mxCell>
        <mxCell id="8ialyaMky4912xhGDfEx-5" value="默认显示导航页，且记住之前所选" style="rounded=0;whiteSpace=wrap;html=1;" vertex="1" parent="1">
          <mxGeometry x="414" y="220" width="120" height="60" as="geometry" />
        </mxCell>
        <mxCell id="8ialyaMky4912xhGDfEx-7" value="" style="rounded=0;whiteSpace=wrap;html=1;" vertex="1" parent="1">
          <mxGeometry x="120" y="320" width="120" height="60" as="geometry" />
        </mxCell>
      </root>
    </mxGraphModel>
  </diagram>
</mxfile>
